# xmcd CD database file
#
# Track frame offsets:
#	187
#	53345
#	79337
#	114950
#	147187
#	168675
#	216637
#	263682
#	280387
#
# Disc length: 4339 seconds
#
# Revision: 2
# Processed by: cddbd v1.5PL3 Copyright (c) Steve Scherf et al.
# Submitted via: CDex 1.50
#
DISCID=8310f109
DTITLE=Dizzy Gillespie - Dizzy Gillespie At Newport
DYEAR=1957
DGENRE=Jazz
TTITLE0=Dizzy's Blues
TTITLE1=School Days
TTITLE2=Doodlin'
TTITLE3=Manteca
TTITLE4=I Remember Clifford
TTITLE5=Cool Breeze
TTITLE6=Selections from Zodiac Suite
TTITLE7=Carloca
TTITLE8=A Night in Tunisia
EXTD=YEAR: 1957
EXTT0=
EXTT1=
EXTT2=
EXTT3=
EXTT4=
EXTT5=
EXTT6=
EXTT7=
EXTT8=
PLAYORDER=
